Muli-Demi.ufo
<glyph name="exclam" format="1">
  <advance width="628"/>
  <unicode hex="0021"/>
  <outline>
    <contour>
      <point x="185" y="0" type="line"/>
      <point x="185" y="244" type="line"/>
      <point x="443" y="244" type="line"/>
      <point x="443" y="0" type="line"/>
    </contour>
    <contour>
      <point x="252" y="381" type="line"/>
      <point x="189" y="1456" type="line"/>
      <point x="441" y="1456" type="line"/>
      <point x="377" y="381" type="line"/>
    </contour>
  </outline>
</glyph>
<glyph name="quotedbl" format="1">
  <advance width="753"/>
  <unicode hex="0022"/>
  <outline>
    <contour>
      <point x="156" y="960" type="line"/>
      <point x="108" y="1456" type="line"/>
      <point x="322" y="1456" type="line"/>
      <point x="282" y="960" type="line"/>
    </contour>
    <contour>
      <point x="479" y="960" type="line"/>
      <point x="432" y="1456" type="line"/>
      <point x="646" y="1456" type="line"/>
      <point x="606" y="960" type="line"/>
    </contour>
  </outline>
</glyph>
<glyph name="numbersign" format="1">
  <advance width="1267"/>
  <unicode hex="0023"/>
  <outline>
    <contour>
      <point x="215.53" y="18.6" type="line"/>
      <point x="302.98" y="463.61" type="line"/>
      <point x="59.95" y="463.61" type="line"/>
      <point x="70.26" y="608.93" type="line"/>
      <point x="331.12" y="608.93" type="line"/>
      <point x="336.08" y="637.76"/>
      <point x="377.23" y="847.51"/>
      <point x="382.5" y="876.34" type="curve"/>
      <point x="118.05" y="876.34" type="line"/>
      <point x="128.98" y="1021.04" type="line"/>
      <point x="410.71" y="1021.04" type="line"/>
      <point x="493.16" y="1444.84" type="line"/>
      <point x="663.31" y="1444.84" type="line"/>
      <point x="581.48" y="1021.04" type="line"/>
      <point x="799.7" y="1021.04" type="line"/>
      <point x="881.22" y="1444.84" type="line"/>
      <point x="1051.37" y="1444.84" type="line"/>
      <point x="969.23" y="1021.04" type="line"/>
      <point x="1198.5" y="1021.04" type="line"/>
      <point x="1188.64" y="876.34" type="line"/>
      <point x="940.71" y="876.34" type="line"/>
      <point x="889.02" y="608.93" type="line"/>
      <point x="1141.02" y="608.93" type="line"/>
      <point x="1131.16" y="463.61" type="line"/>
      <point x="861.5" y="463.61" type="line"/>
      <point x="774.36" y="18.6" type="line"/>
      <point x="604.52" y="18.6" type="line"/>
      <point x="690.73" y="463.61" type="line"/>
      <point x="472.51" y="463.61" type="line"/>
      <point x="385.68" y="18.6" type="line"/>
    </contour>
    <contour>
      <point x="500.03" y="608.93" type="line"/>
      <point x="719.18" y="608.93" type="line"/>
      <point x="770.87" y="876.34" type="line"/>
      <point x="552.65" y="876.34" type="line"/>
    </contour>
  </outline>
</glyph>
<glyph name="percent" format="1">
  <advance width="1819"/>
  <unicode hex="0025"/>
  <outline>
    <contour>
      <point x="447" y="865" type="curve" smooth="yes"/>
      <point x="568" y="865"/>
      <point x="619" y="953"/>
      <point x="619" y="1104" type="curve" smooth="yes"/>
      <point x="619" y="1251"/>
      <point x="573" y="1342"/>
      <point x="448" y="1342" type="curve" smooth="yes"/>
      <point x="322" y="1342"/>
      <point x="276" y="1247"/>
      <point x="276" y="1103" type="curve" smooth="yes"/>
      <point x="276" y="950"/>
      <point x="326" y="865"/>
    </contour>
    <contour>
      <point x="446" y="728" type="curve" smooth="yes"/>
      <point x="222" y="728"/>
      <point x="93" y="875"/>
      <point x="93" y="1102" type="curve" smooth="yes"/>
      <point x="93" y="1323"/>
      <point x="225" y="1479"/>
      <point x="448" y="1479" type="curve" smooth="yes"/>
      <point x="673" y="1479"/>
      <point x="801" y="1326"/>
      <point x="801" y="1104" type="curve" smooth="yes"/>
      <point x="801" y="878"/>
      <point x="668" y="728"/>
    </contour>
    <contour>
      <point x="365" y="0" type="line"/>
      <point x="1288" y="1456" type="line"/>
      <point x="1467" y="1456" type="line"/>
      <point x="542" y="0" type="line"/>
    </contour>
    <contour>
      <point x="1373" y="115" type="curve" smooth="yes"/>
      <point x="1494" y="115"/>
      <point x="1544" y="203"/>
      <point x="1544" y="354" type="curve" smooth="yes"/>
      <point x="1544" y="501"/>
      <point x="1499" y="591"/>
      <point x="1374" y="591" type="curve" smooth="yes"/>
      <point x="1247" y="591"/>
      <point x="1202" y="495"/>
      <point x="1202" y="351" type="curve" smooth="yes"/>
      <point x="1202" y="198"/>
      <point x="1252" y="115"/>
    </contour>
    <contour>
      <point x="1372" y="-23" type="curve" smooth="yes"/>
      <point x="1149" y="-23"/>
      <point x="1019" y="139"/>
      <point x="1019" y="352" type="curve" smooth="yes"/>
      <point x="1019" y="560"/>
      <point x="1151" y="729"/>
      <point x="1374" y="729" type="curve" smooth="yes"/>
      <point x="1599" y="729"/>
      <point x="1726" y="562"/>
      <point x="1726" y="353" type="curve" smooth="yes"/>
      <point x="1726" y="140"/>
      <point x="1594" y="-23"/>
    </contour>
  </outline>
</glyph>
<glyph name="quotesingle" format="1">
  <advance width="498"/>
  <unicode hex="0027"/>
  <outline>
    <contour>
      <point x="187" y="933" type="line"/>
      <point x="148" y="1456" type="line"/>
      <point x="372" y="1456" type="line"/>
      <point x="341" y="933" type="line"/>
    </contour>
  </outline>
</glyph>
<glyph name="parenleft" format="1">
  <advance width="658"/>
  <unicode hex="0028"/>
  <outline>
    <contour>
      <point x="409" y="-172" type="line"/>
      <point x="251" y="69"/>
      <point x="129" y="369"/>
      <point x="129" y="664" type="curve" smooth="yes"/>
      <point x="129" y="974"/>
      <point x="237" y="1253"/>
      <point x="403" y="1516" type="curve"/>
      <point x="609" y="1516" type="line"/>
      <point x="439" y="1247"/>
      <point x="341" y="952"/>
      <point x="341" y="664" type="curve" smooth="yes"/>
      <point x="341" y="397"/>
      <point x="451" y="84"/>
      <point x="610" y="-172" type="curve"/>
    </contour>
  </outline>
</glyph>
<glyph name="parenright" format="1">
  <advance width="658"/>
  <unicode hex="0029"/>
  <outline>
    <contour>
      <point x="250" y="1496" type="line"/>
      <point x="408" y="1255"/>
      <point x="530" y="955"/>
      <point x="530" y="660" type="curve" smooth="yes"/>
      <point x="530" y="350"/>
      <point x="423" y="71"/>
      <point x="257" y="-192" type="curve"/>
      <point x="50" y="-192" type="line"/>
      <point x="220" y="77"/>
      <point x="318" y="372"/>
      <point x="318" y="660" type="curve" smooth="yes"/>
      <point x="318" y="927"/>
      <point x="209" y="1240"/>
      <point x="50" y="1496" type="curve"/>
    </contour>
  </outline>
</glyph>
<glyph name="asterisk" format="1">
  <advance width="1086"/>
  <unicode hex="002A"/>
  <outline>
    <contour>
      <point x="698" y="683" type="line"/>
      <point x="534" y="940" type="line"/>
      <point x="371" y="685" type="line"/>
      <point x="213" y="791" type="line"/>
      <point x="417" y="1026" type="line"/>
      <point x="143" y="1123" type="line"/>
      <point x="211" y="1281" type="line"/>
      <point x="460" y="1159" type="line"/>
      <point x="430" y="1457" type="line"/>
      <point x="628" y="1457" type="line"/>
      <point x="605" y="1159" type="line"/>
      <point x="846" y="1281" type="line"/>
      <point x="920" y="1123" type="line"/>
      <point x="650" y="1026" type="line"/>
      <point x="857" y="787" type="line"/>
    </contour>
  </outline>
</glyph>
<glyph name="hyphen" format="1">
  <advance width="705"/>
  <unicode hex="002D"/>
  <outline>
    <contour>
      <point x="59" y="474" type="line"/>
      <point x="59" y="638" type="line"/>
      <point x="647" y="638" type="line"/>
      <point x="647" y="474" type="line"/>
    </contour>
  </outline>
</glyph>
<glyph name="period" format="1">
  <advance width="541"/>
  <unicode hex="002E"/>
  <outline>
    <contour>
      <point x="134" y="0" type="line"/>
      <point x="134" y="245" type="line"/>
      <point x="392" y="245" type="line"/>
      <point x="392" y="0" type="line"/>
    </contour>
  </outline>
</glyph>
<glyph name="slash" format="1">
  <advance width="911"/>
  <unicode hex="002F"/>
  <outline>
    <contour>
      <point x="73" y="-133" type="line"/>
      <point x="658" y="1456" type="line"/>
      <point x="855" y="1456" type="line"/>
      <point x="265" y="-133" type="line"/>
    </contour>
  </outline>
</glyph>
<glyph name="two" format="1">
  <advance width="1248"/>
  <unicode hex="0032"/>
  <outline>
    <contour>
      <point x="207" y="0" type="line"/>
      <point x="207" y="168" type="line"/>
      <point x="443" y="374"/>
      <point x="857" y="716"/>
      <point x="824" y="1062" type="curve"/>
      <point x="809" y="1226"/>
      <point x="713" y="1296"/>
      <point x="583" y="1296" type="curve" smooth="yes"/>
      <point x="392" y="1296"/>
      <point x="220" y="1168"/>
      <point x="219" y="1168" type="curve" smooth="yes"/>
      <point x="147" y="1340" type="line"/>
      <point x="147" y="1340"/>
      <point x="328" y="1482"/>
      <point x="598" y="1482" type="curve" smooth="yes"/>
      <point x="842" y="1482"/>
      <point x="1020" y="1333"/>
      <point x="1036" y="1062" type="curve" smooth="yes"/>
      <point x="1064" y="611"/>
      <point x="560" y="265"/>
      <point x="469" y="181" type="curve"/>
      <point x="1032" y="181" type="line"/>
      <point x="1032" y="0" type="line"/>
    </contour>
  </outline>
</glyph>
<glyph name="four" format="1">
  <advance width="1248"/>
  <unicode hex="0034"/>
  <outline>
    <contour>
      <point x="737" y="0" type="line"/>
      <point x="737" y="384" type="line"/>
      <point x="106" y="384" type="line"/>
      <point x="106" y="546" type="line"/>
      <point x="693" y="1456" type="line"/>
      <point x="953" y="1456" type="line"/>
      <point x="953" y="552" type="line"/>
      <point x="1176" y="552" type="line"/>
      <point x="1176" y="384" type="line"/>
      <point x="956" y="384" type="line"/>
      <point x="956" y="0" type="line"/>
    </contour>
    <contour>
      <point x="341" y="552" type="line"/>
      <point x="739" y="552" type="line"/>
      <point x="739" y="1206" type="line"/>
      <point x="647" y="1055" type="line"/>
    </contour>
  </outline>
</glyph>
<glyph name="five" format="1">
  <advance width="1248"/>
  <unicode hex="0035"/>
  <outline>
    <contour>
      <point x="615" y="-23" type="curve" smooth="yes"/>
      <point x="453" y="-23"/>
      <point x="286" y="33"/>
      <point x="164" y="160" type="curve"/>
      <point x="273" y="323" type="line"/>
      <point x="370" y="211"/>
      <point x="497" y="164"/>
      <point x="611" y="164" type="curve" smooth="yes"/>
      <point x="785" y="164"/>
      <point x="899" y="282"/>
      <point x="899" y="471" type="curve" smooth="yes"/>
      <point x="899" y="623"/>
      <point x="817" y="754"/>
      <point x="665" y="754" type="curve" smooth="yes"/>
      <point x="587" y="754"/>
      <point x="501" y="727"/>
      <point x="463" y="670" type="curve"/>
      <point x="251" y="689" type="line"/>
      <point x="251" y="1456" type="line"/>
      <point x="1047" y="1456" type="line"/>
      <point x="1047" y="1268" type="line"/>
      <point x="449" y="1268" type="line"/>
      <point x="437" y="851" type="line"/>
      <point x="497" y="921"/>
      <point x="597" y="947"/>
      <point x="696" y="947" type="curve" smooth="yes"/>
      <point x="945" y="947"/>
      <point x="1124" y="741"/>
      <point x="1124" y="467" type="curve" smooth="yes"/>
      <point x="1124" y="161"/>
      <point x="902" y="-23"/>
    </contour>
  </outline>
</glyph>
<glyph name="eight" format="1">
  <advance width="1250"/>
  <unicode hex="0038"/>
  <outline>
    <contour>
      <point x="627" y="-23" type="curve" smooth="yes"/>
      <point x="359" y="-23"/>
      <point x="138" y="124"/>
      <point x="138" y="386" type="curve" smooth="yes"/>
      <point x="138" y="558"/>
      <point x="240" y="694"/>
      <point x="412" y="764" type="curve"/>
      <point x="267" y="830"/>
      <point x="169" y="942"/>
      <point x="169" y="1105" type="curve" smooth="yes"/>
      <point x="169" y="1343"/>
      <point x="366" y="1483"/>
      <point x="623" y="1483" type="curve" smooth="yes"/>
      <point x="894" y="1483"/>
      <point x="1081" y="1339"/>
      <point x="1081" y="1099" type="curve" smooth="yes"/>
      <point x="1081" y="936"/>
      <point x="988" y="823"/>
      <point x="841" y="762" type="curve"/>
      <point x="1004" y="696"/>
      <point x="1112" y="552"/>
      <point x="1112" y="382" type="curve" smooth="yes"/>
      <point x="1112" y="121"/>
      <point x="881" y="-23"/>
    </contour>
    <contour>
      <point x="625" y="164" type="curve" smooth="yes"/>
      <point x="784" y="164"/>
      <point x="893" y="240"/>
      <point x="893" y="399" type="curve" smooth="yes"/>
      <point x="893" y="535"/>
      <point x="778" y="644"/>
      <point x="628" y="679" type="curve"/>
      <point x="472" y="645"/>
      <point x="359" y="543"/>
      <point x="359" y="397" type="curve" smooth="yes"/>
      <point x="359" y="245"/>
      <point x="466" y="164"/>
    </contour>
    <contour>
      <point x="624" y="849" type="curve"/>
      <point x="774" y="886"/>
      <point x="863" y="973"/>
      <point x="863" y="1104" type="curve" smooth="yes"/>
      <point x="863" y="1230"/>
      <point x="754" y="1298"/>
      <point x="624" y="1298" type="curve" smooth="yes"/>
      <point x="490" y="1298"/>
      <point x="386" y="1232"/>
      <point x="386" y="1097" type="curve" smooth="yes"/>
      <point x="386" y="971"/>
      <point x="474" y="884"/>
    </contour>
  </outline>
</glyph>
<glyph name="colon" format="1">
  <advance width="562"/>
  <unicode hex="003A"/>
  <outline>
    <contour>
      <point x="149" y="-7" type="line"/>
      <point x="149" y="237" type="line"/>
      <point x="414" y="237" type="line"/>
      <point x="414" y="-7" type="line"/>
    </contour>
    <contour>
      <point x="149" y="870" type="line"/>
      <point x="149" y="1115" type="line"/>
      <point x="413" y="1115" type="line"/>
      <point x="414" y="870" type="line"/>
    </contour>
  </outline>
</glyph>
<glyph name="less" format="1">
  <advance width="1325"/>
  <unicode hex="003C"/>
  <outline>
    <contour>
      <point x="1107" y="54" type="line"/>
      <point x="124" y="523" type="line"/>
      <point x="124" y="627" type="line"/>
      <point x="1111" y="1091" type="line"/>
      <point x="1111" y="895" type="line"/>
      <point x="398" y="575" type="line"/>
      <point x="1107" y="247" type="line"/>
    </contour>
  </outline>
</glyph>
<glyph name="question" format="1">
  <advance width="1041"/>
  <unicode hex="003F"/>
  <outline>
    <contour>
      <point x="329" y="393" type="line"/>
      <point x="329" y="533" type="line" smooth="yes"/>
      <point x="329" y="787"/>
      <point x="693" y="905"/>
      <point x="693" y="1120" type="curve" smooth="yes"/>
      <point x="693" y="1248"/>
      <point x="592" y="1297"/>
      <point x="464" y="1297" type="curve" smooth="yes"/>
      <point x="344" y="1297"/>
      <point x="218" y="1251"/>
      <point x="169" y="1227" type="curve"/>
      <point x="169" y="1412" type="line"/>
      <point x="218" y="1436"/>
      <point x="340" y="1482"/>
      <point x="486" y="1482" type="curve" smooth="yes"/>
      <point x="723" y="1482"/>
      <point x="913" y="1366"/>
      <point x="913" y="1128" type="curve" smooth="yes"/>
      <point x="913" y="827"/>
      <point x="500" y="733"/>
      <point x="500" y="477" type="curve" smooth="yes"/>
      <point x="500" y="393" type="line"/>
    </contour>
    <contour>
      <point x="295" y="-4" type="line"/>
      <point x="295" y="241" type="line"/>
      <point x="553" y="241" type="line"/>
      <point x="553" y="-4" type="line"/>
    </contour>
  </outline>
</glyph>
<glyph name="A" format="1">
  <advance width="1423"/>
  <unicode hex="0041"/>
  <outline>
    <contour>
      <point x="474" y="568" type="line"/>
      <point x="935" y="568" type="line"/>
      <point x="795" y="965" type="line"/>
      <point x="706" y="1218" type="line"/>
      <point x="616" y="965" type="line"/>
    </contour>
    <contour>
      <point x="21" y="0" type="line"/>
      <point x="597" y="1456" type="line"/>
      <point x="823" y="1456" type="line"/>
      <point x="1403" y="0" type="line"/>
      <point x="1160" y="0" type="line"/>
      <point x="1014" y="372" type="line"/>
      <point x="402" y="372" type="line"/>
      <point x="258" y="0" type="line"/>
    </contour>
  </outline>
</glyph>
<glyph name="B" format="1">
  <advance width="1355"/>
  <unicode hex="0042"/>
  <outline>
    <contour>
      <point x="191" y="0" type="line"/>
      <point x="191" y="1456" type="line"/>
      <point x="573" y="1456" type="line" smooth="yes"/>
      <point x="834" y="1456"/>
      <point x="1172" y="1426"/>
      <point x="1172" y="1093" type="curve" smooth="yes"/>
      <point x="1172" y="952"/>
      <point x="1104" y="828"/>
      <point x="947" y="773" type="curve"/>
      <point x="1138" y="733"/>
      <point x="1240" y="593"/>
      <point x="1240" y="410" type="curve" smooth="yes"/>
      <point x="1240" y="189"/>
      <point x="1069" y="0"/>
      <point x="714" y="0" type="curve" smooth="yes"/>
    </contour>
    <contour>
      <point x="411" y="188" type="line"/>
      <point x="674" y="188" type="line" smooth="yes"/>
      <point x="890" y="188"/>
      <point x="1007" y="263"/>
      <point x="1007" y="418" type="curve" smooth="yes"/>
      <point x="1007" y="607"/>
      <point x="907" y="664"/>
      <point x="655" y="664" type="curve" smooth="yes"/>
      <point x="411" y="664" type="line"/>
    </contour>
    <contour>
      <point x="410" y="844" type="line"/>
      <point x="637" y="844" type="line" smooth="yes"/>
      <point x="792" y="844"/>
      <point x="941" y="891"/>
      <point x="941" y="1064" type="curve" smooth="yes"/>
      <point x="941" y="1234"/>
      <point x="809" y="1268"/>
      <point x="603" y="1268" type="curve" smooth="yes"/>
      <point x="410" y="1268" type="line"/>
    </contour>
  </outline>
</glyph>
<glyph name="J" format="1">
  <advance width="844"/>
  <unicode hex="004A"/>
  <outline>
    <contour>
      <point x="285" y="-331" type="curve" smooth="yes"/>
      <point x="188" y="-331"/>
      <point x="86" y="-305"/>
      <point x="6" y="-276" type="curve"/>
      <point x="41" y="-106" type="line"/>
      <point x="105" y="-126"/>
      <point x="179" y="-145"/>
      <point x="251" y="-145" type="curve" smooth="yes"/>
      <point x="396" y="-145"/>
      <point x="436" y="-51"/>
      <point x="436" y="116" type="curve" smooth="yes"/>
      <point x="436" y="1456" type="line"/>
      <point x="655" y="1456" type="line"/>
      <point x="655" y="119" type="line" smooth="yes"/>
      <point x="655" y="-177"/>
      <point x="523" y="-331"/>
    </contour>
  </outline>
</glyph>
<glyph name="P" format="1">
  <advance width="1271"/>
  <unicode hex="0050"/>
  <outline>
    <contour>
      <point x="191" y="0" type="line"/>
      <point x="191" y="1456" type="line"/>
      <point x="607" y="1456" type="line" smooth="yes"/>
      <point x="950" y="1456"/>
      <point x="1203" y="1408"/>
      <point x="1203" y="1051" type="curve" smooth="yes"/>
      <point x="1203" y="741"/>
      <point x="989" y="646"/>
      <point x="658" y="646" type="curve" smooth="yes"/>
      <point x="410" y="646" type="line"/>
      <point x="410" y="0" type="line"/>
    </contour>
    <contour>
      <point x="410" y="833" type="line"/>
      <point x="655" y="833" type="line" smooth="yes"/>
      <point x="852" y="833"/>
      <point x="977" y="874"/>
      <point x="977" y="1049" type="curve" smooth="yes"/>
      <point x="977" y="1250"/>
      <point x="842" y="1267"/>
      <point x="614" y="1267" type="curve" smooth="yes"/>
      <point x="410" y="1267" type="line"/>
    </contour>
  </outline>
</glyph>
<glyph name="Q" format="1">
  <advance width="1644"/>
  <unicode hex="0051"/>
  <outline>
    <component base="O"/>
    <contour>
      <point x="1239" y="-436" type="line"/>
      <point x="1239" y="-436"/>
      <point x="1038" y="-251"/>
      <point x="918" y="-8" type="curve"/>
      <point x="1115" y="30" type="line"/>
      <point x="1199" y="-143"/>
      <point x="1367" y="-300"/>
      <point x="1367" y="-300" type="curve"/>
    </contour>
  </outline>
</glyph>
<glyph name="R" format="1">
  <advance width="1360"/>
  <unicode hex="0052"/>
  <outline>
    <contour>
      <point x="191" y="0" type="line"/>
      <point x="191" y="1456" type="line"/>
      <point x="673" y="1456" type="line" smooth="yes"/>
      <point x="947" y="1456"/>
      <point x="1178" y="1392"/>
      <point x="1178" y="1063" type="curve" smooth="yes"/>
      <point x="1178" y="897"/>
      <point x="1096" y="760"/>
      <point x="897" y="713" type="curve"/>
      <point x="999" y="673"/>
      <point x="1058" y="574"/>
      <point x="1110" y="444" type="curve" smooth="yes"/>
      <point x="1290" y="0" type="line"/>
      <point x="1054" y="0" type="line"/>
      <point x="889" y="429" type="line" smooth="yes"/>
      <point x="829" y="587"/>
      <point x="786" y="633"/>
      <point x="635" y="633" type="curve" smooth="yes"/>
      <point x="410" y="633" type="line"/>
      <point x="410" y="0" type="line"/>
    </contour>
    <contour>
      <point x="408" y="818" type="line"/>
      <point x="656" y="818" type="line" smooth="yes"/>
      <point x="818" y="818"/>
      <point x="947" y="867"/>
      <point x="947" y="1049" type="curve" smooth="yes"/>
      <point x="947" y="1227"/>
      <point x="859" y="1268"/>
      <point x="676" y="1268" type="curve" smooth="yes"/>
      <point x="408" y="1268" type="line"/>
    </contour>
  </outline>
</glyph>
<glyph name="W" format="1">
  <advance width="2030"/>
  <unicode hex="0057"/>
  <outline>
    <contour>
      <point x="423" y="0" type="line"/>
      <point x="17" y="1456" type="line"/>
      <point x="252" y="1456" type="line"/>
      <point x="490" y="533" type="line"/>
      <point x="557" y="255" type="line"/>
      <point x="632" y="529" type="line"/>
      <point x="915" y="1456" type="line"/>
      <point x="1130" y="1456" type="line"/>
      <point x="1416" y="525" type="line"/>
      <point x="1494" y="255" type="line"/>
      <point x="1555" y="521" type="line"/>
      <point x="1788" y="1456" type="line"/>
      <point x="2013" y="1456" type="line"/>
      <point x="1618" y="0" type="line"/>
      <point x="1364" y="0" type="line"/>
      <point x="1017" y="1159" type="line"/>
      <point x="673" y="0" type="line"/>
    </contour>
  </outline>
</glyph>
<glyph name="bracketleft" format="1">
  <advance width="643"/>
  <unicode hex="005B"/>
  <outline>
    <contour>
      <point x="158" y="-198" type="line"/>
      <point x="158" y="1483" type="line"/>
      <point x="573" y="1483" type="line"/>
      <point x="573" y="1322" type="line"/>
      <point x="371" y="1322" type="line"/>
      <point x="371" y="-38" type="line"/>
      <point x="574" y="-38" type="line"/>
      <point x="574" y="-198" type="line"/>
    </contour>
  </outline>
</glyph>
<glyph name="backslash" format="1">
  <advance width="720"/>
  <unicode hex="005C"/>
  <outline>
    <contour>
      <point x="560" y="-54" type="line"/>
      <point x="-71" y="1456" type="line"/>
      <point x="151" y="1456" type="line"/>
      <point x="779" y="-54" type="line"/>
    </contour>
  </outline>
</glyph>
<glyph name="asciicircum" format="1">
  <advance width="1598"/>
  <unicode hex="005E"/>
  <outline>
    <contour>
      <point x="233" y="550" type="line"/>
      <point x="728" y="1456" type="line"/>
      <point x="863" y="1456" type="line"/>
      <point x="1365" y="550" type="line"/>
      <point x="1155" y="550" type="line"/>
      <point x="793" y="1220" type="line"/>
      <point x="446" y="550" type="line"/>
    </contour>
  </outline>
</glyph>
<glyph name="underscore" format="1">
  <advance width="971"/>
  <unicode hex="005F"/>
  <outline>
    <contour>
      <point x="-9" y="-262" type="line"/>
      <point x="-9" y="-95" type="line"/>
      <point x="980" y="-95" type="line"/>
      <point x="980" y="-262" type="line"/>
    </contour>
  </outline>
</glyph>
<glyph name="a" format="1">
  <advance width="1282"/>
  <unicode hex="0061"/>
  <outline>
    <contour>
      <point x="604" y="-23" type="curve" smooth="yes"/>
      <point x="267" y="-23"/>
      <point x="105" y="233"/>
      <point x="105" y="509" type="curve" smooth="yes"/>
      <point x="105" y="799"/>
      <point x="281" y="1052"/>
      <point x="612" y="1052" type="curve" smooth="yes"/>
      <point x="802" y="1052"/>
      <point x="908" y="935"/>
      <point x="956" y="822" type="curve"/>
      <point x="919" y="800" type="line"/>
      <point x="919" y="1026" type="line"/>
      <point x="1128" y="1026" type="line"/>
      <point x="1128" y="0" type="line"/>
      <point x="916" y="0" type="line"/>
      <point x="916" y="242" type="line"/>
      <point x="950" y="229" type="line"/>
      <point x="903" y="98"/>
      <point x="782" y="-23"/>
    </contour>
    <contour>
      <point x="627" y="880" type="curve" smooth="yes"/>
      <point x="412" y="880"/>
      <point x="319" y="719"/>
      <point x="319" y="515" type="curve" smooth="yes"/>
      <point x="319" y="314"/>
      <point x="412" y="150"/>
      <point x="630" y="150" type="curve" smooth="yes"/>
      <point x="834" y="150"/>
      <point x="927" y="305"/>
      <point x="927" y="519" type="curve" smooth="yes"/>
      <point x="927" y="723"/>
      <point x="832" y="880"/>
    </contour>
  </outline>
</glyph>
<glyph name="e" format="1">
  <advance width="1184"/>
  <unicode hex="0065"/>
  <outline>
    <contour>
      <point x="651" y="-23" type="curve" smooth="yes"/>
      <point x="312" y="-23"/>
      <point x="105" y="192"/>
      <point x="105" y="511" type="curve" smooth="yes"/>
      <point x="105" y="814"/>
      <point x="303" y="1052"/>
      <point x="620" y="1052" type="curve" smooth="yes"/>
      <point x="930" y="1052"/>
      <point x="1076" y="824"/>
      <point x="1076" y="527" type="curve" smooth="yes"/>
      <point x="1076" y="520"/>
      <point x="1075" y="503"/>
      <point x="1072" y="480" type="curve"/>
      <point x="327" y="480" type="line"/>
      <point x="333" y="257"/>
      <point x="472" y="150"/>
      <point x="665" y="150" type="curve" smooth="yes"/>
      <point x="783" y="150"/>
      <point x="892" y="186"/>
      <point x="990" y="262" type="curve"/>
      <point x="1051" y="107" type="line"/>
      <point x="937" y="20"/>
      <point x="807" y="-23"/>
    </contour>
    <contour>
      <point x="332" y="624" type="curve"/>
      <point x="890" y="624" type="line"/>
      <point x="870" y="796"/>
      <point x="767" y="885"/>
      <point x="628" y="885" type="curve" smooth="yes"/>
      <point x="472" y="885"/>
      <point x="361" y="788"/>
    </contour>
  </outline>
</glyph>
<glyph name="f" format="1">
  <advance width="767"/>
  <unicode hex="0066"/>
  <outline>
    <contour>
      <point x="256" y="0" type="line"/>
      <point x="256" y="885" type="line"/>
      <point x="69" y="885" type="line"/>
      <point x="69" y="1026" type="line"/>
      <point x="256" y="1026" type="line"/>
      <point x="256" y="1091" type="line" smooth="yes"/>
      <point x="256" y="1365"/>
      <point x="294" y="1487"/>
      <point x="666" y="1487" type="curve" smooth="yes"/>
      <point x="716" y="1487" type="line"/>
      <point x="711" y="1322" type="line"/>
      <point x="486" y="1322"/>
      <point x="467" y="1286"/>
      <point x="467" y="1102" type="curve" smooth="yes"/>
      <point x="467" y="1026" type="line"/>
      <point x="706" y="1026" type="line"/>
      <point x="706" y="885" type="line"/>
      <point x="467" y="885" type="line"/>
      <point x="467" y="0" type="line"/>
    </contour>
  </outline>
</glyph>
<glyph name="h" format="1">
  <advance width="1230"/>
  <unicode hex="0068"/>
  <outline>
    <contour>
      <point x="158" y="0" type="line"/>
      <point x="158" y="1473" type="line"/>
      <point x="370" y="1473" type="line"/>
      <point x="370" y="878" type="line"/>
      <point x="428" y="985"/>
      <point x="573" y="1052"/>
      <point x="701" y="1052" type="curve" smooth="yes"/>
      <point x="998" y="1052"/>
      <point x="1085" y="814"/>
      <point x="1085" y="598" type="curve" smooth="yes"/>
      <point x="1085" y="0" type="line"/>
      <point x="873" y="0" type="line"/>
      <point x="873" y="599" type="line" smooth="yes"/>
      <point x="873" y="798"/>
      <point x="808" y="880"/>
      <point x="668" y="880" type="curve" smooth="yes"/>
      <point x="516" y="880"/>
      <point x="370" y="758"/>
      <point x="370" y="621" type="curve" smooth="yes"/>
      <point x="370" y="0" type="line"/>
    </contour>
  </outline>
</glyph>
<glyph name="p" format="1">
  <advance width="1265"/>
  <unicode hex="0070"/>
  <outline>
    <contour>
      <point x="170" y="-409" type="line"/>
      <point x="170" y="714" type="line" smooth="yes"/>
      <point x="170" y="800"/>
      <point x="162" y="922"/>
      <point x="156" y="1026" type="curve"/>
      <point x="380" y="1026" type="line"/>
      <point x="380" y="861" type="line"/>
      <point x="409" y="951"/>
      <point x="542" y="1052"/>
      <point x="707" y="1052" type="curve" smooth="yes"/>
      <point x="989" y="1052"/>
      <point x="1163" y="823"/>
      <point x="1163" y="526" type="curve" smooth="yes"/>
      <point x="1163" y="224"/>
      <point x="988" y="-23"/>
      <point x="701" y="-23" type="curve" smooth="yes"/>
      <point x="532" y="-23"/>
      <point x="406" y="77"/>
      <point x="380" y="153" type="curve"/>
      <point x="380" y="-409" type="line"/>
    </contour>
    <contour>
      <point x="659" y="150" type="curve" smooth="yes"/>
      <point x="850" y="150"/>
      <point x="941" y="308"/>
      <point x="941" y="517" type="curve" smooth="yes"/>
      <point x="941" y="726"/>
      <point x="846" y="880"/>
      <point x="661" y="880" type="curve" smooth="yes"/>
      <point x="471" y="880"/>
      <point x="372" y="722"/>
      <point x="372" y="508" type="curve" smooth="yes"/>
      <point x="372" y="305"/>
      <point x="467" y="150"/>
    </contour>
  </outline>
</glyph>
<glyph name="v" format="1">
  <advance width="1084"/>
  <unicode hex="0076"/>
  <outline>
    <contour>
      <point x="443" y="0" type="line"/>
      <point x="12" y="1026" type="line"/>
      <point x="246" y="1026" type="line"/>
      <point x="474" y="433" type="line"/>
      <point x="551" y="227" type="line"/>
      <point x="624" y="433" type="line"/>
      <point x="845" y="1026" type="line"/>
      <point x="1073" y="1026" type="line"/>
      <point x="641" y="0" type="line"/>
    </contour>
  </outline>
</glyph>
<glyph name="bar" format="1">
  <advance width="708"/>
  <unicode hex="007C"/>
  <outline>
    <contour>
      <point x="253" y="-470" type="line"/>
      <point x="253" y="1523" type="line"/>
      <point x="455" y="1523" type="line"/>
      <point x="455" y="-470" type="line"/>
    </contour>
  </outline>
</glyph>
<glyph name="braceright" format="1">
  <advance width="721"/>
  <unicode hex="007D"/>
  <outline>
    <contour>
      <point x="109.14" y="-193.97" type="curve"/>
      <point x="109.14" y="-26.57" type="line"/>
      <point x="236.6" y="-25.64"/>
      <point x="275.08" y="51.69"/>
      <point x="275.08" y="193.18" type="curve" smooth="yes"/>
      <point x="275.08" y="441.47" type="line" smooth="yes"/>
      <point x="275.08" y="555.69"/>
      <point x="354.62" y="625.89"/>
      <point x="440.88" y="658.58" type="curve"/>
      <point x="348.28" y="703.34"/>
      <point x="275.08" y="784.76"/>
      <point x="275.08" y="916.16" type="curve" smooth="yes"/>
      <point x="275.08" y="1169.35" type="line" smooth="yes"/>
      <point x="275.08" y="1312.88"/>
      <point x="202.4" y="1334.83"/>
      <point x="111.21" y="1335.52" type="curve"/>
      <point x="111.21" y="1502.23" type="line"/>
      <point x="391.74" y="1499.75"/>
      <point x="493.21" y="1376.62"/>
      <point x="493.21" y="1172.89" type="curve" smooth="yes"/>
      <point x="493.21" y="943.01" type="line" smooth="yes"/>
      <point x="493.21" y="802.45"/>
      <point x="541.31" y="735.2"/>
      <point x="660.12" y="729.93" type="curve"/>
      <point x="660.12" y="576.19" type="line"/>
      <point x="551.09" y="572.78"/>
      <point x="494.21" y="505.86"/>
      <point x="493.9" y="383.59" type="curve" smooth="yes"/>
      <point x="493.9" y="153.36" type="line" smooth="yes"/>
      <point x="493.9" y="-42.02"/>
      <point x="407.17" y="-193.97"/>
    </contour>
  </outline>
</glyph>
<glyph name="yen" format="1">
  <advance width="1246"/>
  <unicode hex="00A5"/>
  <outline>
    <component base="Y"/>
    <contour>
      <point x="1079" y="266" type="line"/>
      <point x="163" y="266" type="line"/>
      <point x="163" y="417" type="line"/>
      <point x="552" y="417" type="line"/>
      <point x="552" y="543" type="line"/>
      <point x="163" y="543" type="line"/>
      <point x="163" y="699" type="line"/>
      <point x="1078" y="699" type="line"/>
      <point x="1078" y="543" type="line"/>
      <point x="685" y="543" type="line"/>
      <point x="685" y="417" type="line"/>
      <point x="1079" y="417" type="line"/>
    </contour>
  </outline>
</glyph>
<glyph name="brokenbar" format="1">
  <advance width="500"/>
  <unicode hex="00A6"/>
  <outline>
    <contour>
      <point x="138" y="-470" type="line"/>
      <point x="138" y="406" type="line"/>
      <point x="342" y="406" type="line"/>
      <point x="342" y="-470" type="line"/>
    </contour>
    <contour>
      <point x="137" y="613" type="line"/>
      <point x="137" y="1523" type="line"/>
      <point x="340" y="1523" type="line"/>
      <point x="340" y="613" type="line"/>
    </contour>
  </outline>
</glyph>
<glyph name="section" format="1">
  <advance width="1084"/>
  <unicode hex="00A7"/>
  <outline>
    <contour>
      <point x="630" y="559" type="curve"/>
      <point x="668" y="590"/>
      <point x="702" y="634"/>
      <point x="702" y="694" type="curve" smooth="yes"/>
      <point x="702" y="790"/>
      <point x="598" y="816"/>
      <point x="492" y="867" type="curve"/>
      <point x="455" y="845"/>
      <point x="388" y="795"/>
      <point x="388" y="730" type="curve" smooth="yes"/>
      <point x="388" y="649"/>
      <point x="488" y="620"/>
    </contour>
    <contour>
      <point x="509" y="-69" type="curve" smooth="yes"/>
      <point x="407" y="-69"/>
      <point x="295" y="-50"/>
      <point x="196" y="-12" type="curve"/>
      <point x="196" y="165" type="line"/>
      <point x="291" y="125"/>
      <point x="408" y="99"/>
      <point x="500" y="99" type="curve" smooth="yes"/>
      <point x="615" y="99"/>
      <point x="693" y="153"/>
      <point x="693" y="237" type="curve" smooth="yes"/>
      <point x="694" y="305"/>
      <point x="615" y="341"/>
      <point x="397" y="443" type="curve"/>
      <point x="263" y="505"/>
      <point x="180" y="591"/>
      <point x="180" y="712" type="curve" smooth="yes"/>
      <point x="180" y="813"/>
      <point x="250" y="899"/>
      <point x="344" y="949" type="curve"/>
      <point x="260" y="1008"/>
      <point x="204" y="1082"/>
      <point x="204" y="1192" type="curve" smooth="yes"/>
      <point x="204" y="1390"/>
      <point x="379" y="1485"/>
      <point x="590" y="1485" type="curve" smooth="yes"/>
      <point x="681" y="1485"/>
      <point x="769" y="1469"/>
      <point x="859" y="1440" type="curve"/>
      <point x="859" y="1270" type="line"/>
      <point x="798" y="1290"/>
      <point x="695" y="1324"/>
      <point x="611" y="1324" type="curve" smooth="yes"/>
      <point x="513" y="1324"/>
      <point x="428" y="1283"/>
      <point x="428" y="1202" type="curve" smooth="yes"/>
      <point x="428" y="1133"/>
      <point x="499" y="1077"/>
      <point x="651" y="1009" type="curve"/>
      <point x="799" y="938"/>
      <point x="924" y="866"/>
      <point x="924" y="722" type="curve" smooth="yes"/>
      <point x="924" y="622"/>
      <point x="859" y="542"/>
      <point x="772" y="480" type="curve"/>
      <point x="857" y="433"/>
      <point x="916" y="353"/>
      <point x="916" y="244" type="curve" smooth="yes"/>
      <point x="916" y="34"/>
      <point x="730" y="-69"/>
    </contour>
  </outline>
</glyph>
<glyph name="uni00AD" format="1">
  <advance width="728"/>
  <unicode hex="00AD"/>
  <outline>
    <contour>
      <point x="56" y="1192" type="line"/>
      <point x="55" y="1350" type="line"/>
      <point x="657" y="1350" type="line"/>
      <point x="657" y="1192" type="line"/>
    </contour>
  </outline>
</glyph>
<glyph name="plusminus" format="1">
  <advance width="1249"/>
  <unicode hex="00B1"/>
  <outline>
    <contour>
      <point x="525" y="270" type="line"/>
      <point x="525" y="593" type="line"/>
      <point x="192" y="593" type="line"/>
      <point x="192" y="767" type="line"/>
      <point x="521" y="767" type="line"/>
      <point x="521" y="1094" type="line"/>
      <point x="720" y="1094" type="line"/>
      <point x="720" y="767" type="line"/>
      <point x="1054" y="767" type="line"/>
      <point x="1054" y="593" type="line"/>
      <point x="727" y="593" type="line"/>
      <point x="727" y="270" type="line"/>
    </contour>
    <contour>
      <point x="186" y="0" type="line"/>
      <point x="186" y="157" type="line"/>
      <point x="1067" y="157" type="line"/>
      <point x="1067" y="0" type="line"/>
    </contour>
  </outline>
</glyph>
<glyph name="acute" format="1">
  <advance width="607"/>
  <unicode hex="00B4"/>
  <outline>
    <contour>
      <point x="58" y="1169" type="line"/>
      <point x="306" y="1486" type="line"/>
      <point x="579" y="1486" type="line"/>
      <point x="244" y="1169" type="line"/>
    </contour>
  </outline>
</glyph>
<glyph name="paragraph" format="1">
  <advance width="1217"/>
  <unicode hex="00B6"/>
  <outline>
    <contour>
      <point x="446" y="-178" type="line"/>
      <point x="446" y="803" type="line"/>
      <point x="245" y="814"/>
      <point x="110" y="930"/>
      <point x="110" y="1132" type="curve" smooth="yes"/>
      <point x="110" y="1389"/>
      <point x="305" y="1455"/>
      <point x="583" y="1455" type="curve" smooth="yes"/>
      <point x="1053" y="1455" type="line"/>
      <point x="1053" y="1292" type="line"/>
      <point x="968" y="1292" type="line"/>
      <point x="968" y="-178" type="line"/>
      <point x="799" y="-178" type="line"/>
      <point x="799" y="1292" type="line"/>
      <point x="615" y="1292" type="line"/>
      <point x="615" y="-178" type="line"/>
    </contour>
  </outline>
</glyph>
<glyph name="cedilla" format="1">
  <advance width="529"/>
  <unicode hex="00B8"/>
  <outline>
    <contour>
      <point x="220" y="-419" type="curve" smooth="yes"/>
      <point x="155" y="-419"/>
      <point x="47" y="-394"/>
      <point x="32" y="-389" type="curve"/>
      <point x="45" y="-280" type="line"/>
      <point x="62" y="-287"/>
      <point x="154" y="-309"/>
      <point x="214" y="-309" type="curve" smooth="yes"/>
      <point x="285" y="-309"/>
      <point x="314" y="-273"/>
      <point x="314" y="-239" type="curve" smooth="yes"/>
      <point x="314" y="-204"/>
      <point x="286" y="-158"/>
      <point x="159" y="-158" type="curve" smooth="yes"/>
      <point x="132" y="-158" type="line"/>
      <point x="164" y="26" type="line"/>
      <point x="272" y="26" type="line"/>
      <point x="254" y="-86" type="line"/>
      <point x="410" y="-102"/>
      <point x="491" y="-160"/>
      <point x="491" y="-244" type="curve" smooth="yes"/>
      <point x="491" y="-339"/>
      <point x="403" y="-419"/>
    </contour>
  </outline>
</glyph>
<glyph name="ordmasculine" format="1">
  <advance width="897"/>
  <unicode hex="00BA"/>
  <outline>
    <contour>
      <point x="451" y="877" type="curve" smooth="yes"/>
      <point x="574" y="877"/>
      <point x="652" y="962"/>
      <point x="652" y="1093" type="curve" smooth="yes"/>
      <point x="652" y="1231"/>
      <point x="573" y="1314"/>
      <point x="450" y="1314" type="curve" smooth="yes"/>
      <point x="329" y="1314"/>
      <point x="247" y="1229"/>
      <point x="247" y="1096" type="curve" smooth="yes"/>
      <point x="247" y="959"/>
      <point x="322" y="877"/>
    </contour>
    <contour>
      <point x="452" y="736" type="curve" smooth="yes"/>
      <point x="204" y="736"/>
      <point x="75" y="893"/>
      <point x="75" y="1099" type="curve" smooth="yes"/>
      <point x="75" y="1299"/>
      <point x="212" y="1457"/>
      <point x="450" y="1457" type="curve" smooth="yes"/>
      <point x="690" y="1457"/>
      <point x="822" y="1296"/>
      <point x="822" y="1095" type="curve" smooth="yes"/>
      <point x="822" y="898"/>
      <point x="690" y="736"/>
    </contour>
  </outline>
</glyph>
<glyph name="AE" format="1">
  <advance width="2128"/>
  <unicode hex="00C6"/>
  <outline>
    <contour>
      <point x="23" y="0" type="line"/>
      <point x="869" y="1456" type="line"/>
      <point x="1923" y="1456" type="line"/>
      <point x="1923" y="1265" type="line"/>
      <point x="1248" y="1265" type="line"/>
      <point x="1285" y="839" type="line"/>
      <point x="1904" y="839" type="line"/>
      <point x="1904" y="655" type="line"/>
      <point x="1306" y="655" type="line"/>
      <point x="1349" y="190" type="line"/>
      <point x="1949" y="190" type="line"/>
      <point x="1949" y="0" type="line"/>
      <point x="1131" y="0" type="line"/>
      <point x="1099" y="381" type="line"/>
      <point x="499" y="381" type="line"/>
      <point x="282" y="0" type="line"/>
    </contour>
    <contour>
      <point x="587" y="552" type="line"/>
      <point x="1083" y="552" type="line"/>
      <point x="1031" y="1265" type="line"/>
      <point x="990" y="1265" type="line"/>
    </contour>
  </outline>
</glyph>
<glyph name="multiply" format="1">
  <advance width="1248"/>
  <unicode hex="00D7"/>
  <outline>
    <contour>
      <point x="343" y="133" type="line"/>
      <point x="207" y="269" type="line"/>
      <point x="488" y="550" type="line"/>
      <point x="207" y="831" type="line"/>
      <point x="343" y="967" type="line"/>
      <point x="624" y="686" type="line"/>
      <point x="906" y="967" type="line"/>
      <point x="1042" y="831" type="line"/>
      <point x="760" y="550" type="line"/>
      <point x="1042" y="269" type="line"/>
      <point x="906" y="133" type="line"/>
      <point x="624" y="413" type="line"/>
    </contour>
  </outline>
</glyph>
<glyph name="Oslash" format="1">
  <advance width="1663"/>
  <unicode hex="00D8"/>
  <outline>
    <component base="O"/>
    <contour>
      <point x="441" y="-126" type="line"/>
      <point x="338" y="-74" type="line"/>
      <point x="1210" y="1566" type="line"/>
      <point x="1313" y="1514" type="line"/>
    </contour>
  </outline>
</glyph>
<glyph name="oslash" format="1">
  <advance width="1269"/>
  <unicode hex="00F8"/>
  <outline>
    <component base="o"/>
    <contour>
      <point x="371.24" y="-209.31" type="line"/>
      <point x="273.17" y="-166.79" type="line"/>
      <point x="907.86" y="1216.71" type="line"/>
      <point x="1006.55" y="1173.57" type="line"/>
    </contour>
  </outline>
</glyph>
<glyph name="hbar" format="1">
  <advance width="1195"/>
  <unicode hex="0127"/>
  <outline>
    <component base="h"/>
    <contour>
      <point x="-20" y="1179" type="line"/>
      <point x="-20" y="1324" type="line"/>
      <point x="582" y="1324" type="line"/>
      <point x="582" y="1179" type="line"/>
    </contour>
  </outline>
</glyph>
<glyph name="OE" format="1">
  <advance width="2052"/>
  <unicode hex="0152"/>
  <outline>
    <contour>
      <point x="811" y="-24" type="curve" smooth="yes"/>
      <point x="402" y="-36"/>
      <point x="107" y="230"/>
      <point x="107" y="730" type="curve" smooth="yes"/>
      <point x="107" y="1184"/>
      <point x="395" y="1477"/>
      <point x="785" y="1482" type="curve"/>
      <point x="992" y="1486"/>
      <point x="1089" y="1410"/>
      <point x="1109" y="1391" type="curve"/>
      <point x="1109" y="1456" type="line"/>
      <point x="1931" y="1456" type="line"/>
      <point x="1931" y="1268" type="line"/>
      <point x="1328" y="1268" type="line"/>
      <point x="1328" y="839" type="line"/>
      <point x="1893" y="839" type="line"/>
      <point x="1893" y="651" type="line"/>
      <point x="1329" y="651" type="line"/>
      <point x="1329" y="188" type="line"/>
      <point x="1960" y="188" type="line"/>
      <point x="1960" y="0" type="line"/>
      <point x="1109" y="0" type="line"/>
      <point x="1109" y="81" type="line"/>
      <point x="1085" y="55"/>
      <point x="979" y="-19"/>
    </contour>
    <contour>
      <point x="817" y="153" type="curve" smooth="yes"/>
      <point x="1002" y="154"/>
      <point x="1084" y="229"/>
      <point x="1109" y="257" type="curve"/>
      <point x="1109" y="1203" type="line"/>
      <point x="1057" y="1251"/>
      <point x="960" y="1304"/>
      <point x="794" y="1295" type="curve"/>
      <point x="532" y="1283"/>
      <point x="342" y="1082"/>
      <point x="342" y="725" type="curve" smooth="yes"/>
      <point x="342" y="374"/>
      <point x="518" y="150"/>
    </contour>
  </outline>
</glyph>
<glyph name="Tbar" format="1">
  <advance width="1160"/>
  <unicode hex="0166"/>
  <outline>
    <component base="T"/>
    <contour>
      <point x="220" y="624" type="line"/>
      <point x="220" y="784" type="line"/>
      <point x="922" y="784" type="line"/>
      <point x="922" y="624" type="line"/>
    </contour>
  </outline>
</glyph>
<glyph name="breve" format="1">
  <advance width="652"/>
  <unicode hex="02D8"/>
  <outline>
    <contour>
      <point x="328" y="1181" type="curve" smooth="yes"/>
      <point x="149" y="1181"/>
      <point x="45" y="1262"/>
      <point x="31" y="1456" type="curve"/>
      <point x="181" y="1456" type="line"/>
      <point x="188" y="1354"/>
      <point x="251" y="1330"/>
      <point x="328" y="1330" type="curve" smooth="yes"/>
      <point x="405" y="1330"/>
      <point x="463" y="1356"/>
      <point x="474" y="1456" type="curve"/>
      <point x="622" y="1456" type="line"/>
      <point x="609" y="1263"/>
      <point x="504" y="1181"/>
    </contour>
  </outline>
</glyph>
<glyph name="hungarumlaut" format="1">
  <advance width="969"/>
  <unicode hex="02DD"/>
  <outline>
    <contour>
      <point x="96" y="1141" type="line"/>
      <point x="302" y="1484" type="line"/>
      <point x="539" y="1484" type="line"/>
      <point x="249" y="1141" type="line"/>
    </contour>
    <contour>
      <point x="397" y="1141" type="line"/>
      <point x="628" y="1484" type="line"/>
      <point x="876" y="1484" type="line"/>
      <point x="555" y="1141" type="line"/>
    </contour>
  </outline>
</glyph>
<glyph name="uni2015" format="1">
  <advance width="4096"/>
  <unicode hex="2015"/>
  <outline>
    <contour>
      <point x="59" y="468" type="line"/>
      <point x="59" y="635" type="line"/>
      <point x="4037" y="635" type="line"/>
      <point x="4037" y="468" type="line"/>
    </contour>
  </outline>
</glyph>
<glyph name="quoteleft" format="1">
  <advance width="540"/>
  <unicode hex="2018"/>
  <outline>
    <contour>
      <point x="424" y="875" type="line"/>
      <point x="285" y="875" type="line"/>
      <point x="125" y="1456" type="line"/>
      <point x="378" y="1456" type="line"/>
    </contour>
  </outline>
</glyph>
<glyph name="quoteright" format="1">
  <advance width="574"/>
  <unicode hex="2019"/>
  <outline>
    <contour>
      <point x="117" y="875" type="line"/>
      <point x="198" y="1456" type="line"/>
      <point x="449" y="1456" type="line"/>
      <point x="273" y="875" type="line"/>
    </contour>
  </outline>
</glyph>
<glyph name="quotesinglbase" format="1">
  <advance width="634"/>
  <unicode hex="201A"/>
  <outline>
    <contour>
      <point x="144" y="-318" type="line"/>
      <point x="256" y="236" type="line"/>
      <point x="484" y="236" type="line"/>
      <point x="326" y="-318" type="line"/>
    </contour>
  </outline>
</glyph>
<glyph name="quotedblleft" format="1">
  <advance width="1024"/>
  <unicode hex="201C"/>
  <outline>
    <contour>
      <point x="150" y="875" type="line"/>
      <point x="326" y="1456" type="line"/>
      <point x="503" y="1456" type="line"/>
      <point x="392" y="875" type="line"/>
    </contour>
    <contour>
      <point x="565" y="875" type="line"/>
      <point x="733" y="1456" type="line"/>
      <point x="910" y="1456" type="line"/>
      <point x="801" y="875" type="line"/>
    </contour>
  </outline>
</glyph>
<glyph name="quotedblbase" format="1">
  <advance width="1024"/>
  <unicode hex="201E"/>
  <outline>
    <contour>
      <point x="126" y="-228" type="line"/>
      <point x="234" y="236" type="line"/>
      <point x="468" y="236" type="line"/>
      <point x="310" y="-228" type="line"/>
    </contour>
    <contour>
      <point x="508" y="-228" type="line"/>
      <point x="617" y="236" type="line"/>
      <point x="851" y="236" type="line"/>
      <point x="689" y="-228" type="line"/>
    </contour>
  </outline>
</glyph>
<glyph name="dagger" format="1">
  <advance width="1022"/>
  <unicode hex="2020"/>
  <outline>
    <contour>
      <point x="410" y="108" type="line"/>
      <point x="410" y="894" type="line"/>
      <point x="84" y="894" type="line"/>
      <point x="84" y="1065" type="line"/>
      <point x="410" y="1065" type="line"/>
      <point x="410" y="1433" type="line"/>
      <point x="584" y="1433" type="line"/>
      <point x="584" y="1065" type="line"/>
      <point x="919" y="1065" type="line"/>
      <point x="919" y="894" type="line"/>
      <point x="579" y="894" type="line"/>
      <point x="579" y="108" type="line"/>
    </contour>
  </outline>
</glyph>
<glyph name="ellipsis" format="1">
  <advance width="1620"/>
  <unicode hex="2026"/>
  <outline>
    <contour>
      <point x="134" y="-11" type="line"/>
      <point x="134" y="234" type="line"/>
      <point x="399" y="234" type="line"/>
      <point x="399" y="-11" type="line"/>
    </contour>
    <contour>
      <point x="663" y="-11" type="line"/>
      <point x="663" y="234" type="line"/>
      <point x="928" y="234" type="line"/>
      <point x="929" y="-11" type="line"/>
    </contour>
    <contour>
      <point x="1192" y="-11" type="line"/>
      <point x="1192" y="234" type="line"/>
      <point x="1456" y="234" type="line"/>
      <point x="1456" y="-11" type="line"/>
    </contour>
  </outline>
</glyph>
<glyph name="perthousand" format="1">
  <advance width="2649"/>
  <unicode hex="2030"/>
  <outline>
    <component base="percent"/>
    <contour>
      <point x="2201" y="-23" type="curve" smooth="yes"/>
      <point x="1978" y="-23"/>
      <point x="1848" y="139"/>
      <point x="1848" y="352" type="curve" smooth="yes"/>
      <point x="1848" y="560"/>
      <point x="1980" y="729"/>
      <point x="2203" y="729" type="curve" smooth="yes"/>
      <point x="2428" y="729"/>
      <point x="2556" y="562"/>
      <point x="2556" y="353" type="curve" smooth="yes"/>
      <point x="2556" y="140"/>
      <point x="2423" y="-23"/>
    </contour>
    <contour>
      <point x="2202" y="115" type="curve" smooth="yes"/>
      <point x="2323" y="115"/>
      <point x="2373" y="203"/>
      <point x="2373" y="354" type="curve" smooth="yes"/>
      <point x="2373" y="501"/>
      <point x="2328" y="591"/>
      <point x="2203" y="591" type="curve" smooth="yes"/>
      <point x="2076" y="591"/>
      <point x="2031" y="495"/>
      <point x="2031" y="351" type="curve" smooth="yes"/>
      <point x="2031" y="198"/>
      <point x="2081" y="115"/>
    </contour>
  </outline>
</glyph>
<glyph name="guilsinglleft" format="1">
  <advance width="702"/>
  <unicode hex="2039"/>
  <outline>
    <contour>
      <point x="412" y="164" type="line"/>
      <point x="138" y="541" type="line"/>
      <point x="417" y="919" type="line"/>
      <point x="596" y="919" type="line"/>
      <point x="353" y="540" type="line"/>
      <point x="588" y="164" type="line"/>
    </contour>
  </outline>
</glyph>
<glyph name="guilsinglright" format="1">
  <advance width="702"/>
  <unicode hex="203A"/>
  <outline>
    <contour>
      <point x="291" y="918" type="line"/>
      <point x="564" y="541" type="line"/>
      <point x="285" y="163" type="line"/>
      <point x="106" y="163" type="line"/>
      <point x="350" y="541" type="line"/>
      <point x="114" y="918" type="line"/>
    </contour>
  </outline>
</glyph>
<glyph name="fraction" format="1">
  <advance width="1099"/>
  <unicode hex="2044"/>
  <outline>
    <contour>
      <point x="0" y="0" type="line"/>
      <point x="894" y="1456" type="line"/>
      <point x="1100" y="1456" type="line"/>
      <point x="207" y="0" type="line"/>
    </contour>
  </outline>
</glyph>
<glyph name="minus" format="1">
  <advance width="1379"/>
  <unicode hex="2212"/>
  <outline>
    <contour>
      <point x="186" y="375" type="line"/>
      <point x="186" y="549" type="line"/>
      <point x="1193" y="549" type="line"/>
      <point x="1193" y="375" type="line"/>
    </contour>
  </outline>
</glyph>
<glyph name="infinity" format="1">
  <advance width="1734"/>
  <unicode hex="221E"/>
  <outline>
    <contour>
      <point x="464" y="233" type="curve" smooth="yes"/>
      <point x="245" y="233"/>
      <point x="96" y="411"/>
      <point x="96" y="620" type="curve" smooth="yes"/>
      <point x="96" y="810"/>
      <point x="267" y="961"/>
      <point x="459" y="961" type="curve" smooth="yes"/>
      <point x="623" y="961"/>
      <point x="753" y="864"/>
      <point x="870" y="707" type="curve"/>
      <point x="982" y="860"/>
      <point x="1103" y="961"/>
      <point x="1273" y="961" type="curve" smooth="yes"/>
      <point x="1494" y="961"/>
      <point x="1636" y="811"/>
      <point x="1636" y="602" type="curve" smooth="yes"/>
      <point x="1636" y="384"/>
      <point x="1466" y="233"/>
      <point x="1271" y="233" type="curve" smooth="yes"/>
      <point x="1122" y="233"/>
      <point x="1001" y="314"/>
      <point x="868" y="487" type="curve"/>
      <point x="753" y="336"/>
      <point x="625" y="233"/>
    </contour>
    <contour>
      <point x="475" y="372" type="curve" smooth="yes"/>
      <point x="601" y="372"/>
      <point x="707" y="474"/>
      <point x="796" y="596" type="curve"/>
      <point x="707" y="724"/>
      <point x="601" y="824"/>
      <point x="465" y="824" type="curve" smooth="yes"/>
      <point x="325" y="824"/>
      <point x="249" y="721"/>
      <point x="249" y="598" type="curve" smooth="yes"/>
      <point x="249" y="484"/>
      <point x="335" y="372"/>
    </contour>
    <contour>
      <point x="1273" y="372" type="curve" smooth="yes"/>
      <point x="1420" y="372"/>
      <point x="1481" y="482"/>
      <point x="1481" y="623" type="curve" smooth="yes"/>
      <point x="1481" y="731"/>
      <point x="1397" y="824"/>
      <point x="1268" y="824" type="curve" smooth="yes"/>
      <point x="1139" y="824"/>
      <point x="1027" y="715"/>
      <point x="945" y="598" type="curve"/>
      <point x="1062" y="451"/>
      <point x="1153" y="372"/>
    </contour>
  </outline>
</glyph>
